<svg viewBox="0 0 4609.282 775.814" xmlns="http://www.w3.org/2000/svg"><path fill="#FFF" d="M216.25 784.338c-1.889-.763-1.505-7.8.687-12.599 1.065-2.331 2.61-6.584 3.434-9.45.824-2.866 2.134-6.69 2.913-8.5.778-1.809 2.518-6.648 3.866-10.754l2.452-7.465-9.05-4.612c-13.793-7.028-22.475-11.897-28.747-16.122-3.132-2.11-6.17-3.836-6.75-3.836-.58 0-1.055-.42-1.055-.933 0-.513-.897-1.217-1.994-1.565-1.097-.348-2.56-1.176-3.25-1.839s-4.26-3.333-7.933-5.933c-3.672-2.6-7.272-5.305-8-6.011-.728-.707-2.898-2.374-4.823-3.704-1.925-1.331-4.176-3.116-5.001-3.968-.826-.85-4.42-4.022-7.988-7.047-8.319-7.054-22.957-21.692-30.011-30.011-3.025-3.567-6.188-7.162-7.028-7.988-.84-.825-3.08-3.526-4.974-6.001-1.896-2.475-3.705-4.725-4.02-5-.316-.275-1.663-2.075-2.993-4-1.33-1.925-2.996-4.095-3.702-4.821C91.577 621.452 91 620.47 91 620c0-.471-.584-1.452-1.298-2.179C87.565 615.645 82 607.214 82 606.153c0-.542-.349-1.136-.775-1.32-.792-.34-9.568-14.92-12.24-20.333-.815-1.65-1.717-3.225-2.004-3.5-.287-.275-1.926-3.425-3.643-7-10.102-21.034-17.5-39.94-22.303-57-.697-2.475-1.622-5.625-2.055-7-.434-1.375-1.282-4.638-1.884-7.25-4.123-17.872-4.708-21.033-8.29-44.75-1.766-11.69-1.78-72.548-.02-83.5.707-4.4 1.758-11.15 2.335-15 1.123-7.492 2.402-14.409 3.93-21.25 2.117-9.48 3.179-13.873 3.929-16.25.433-1.375 1.35-4.525 2.038-7 1.602-5.767 4.868-15.917 5.954-18.5.462-1.1 2.769-6.95 5.126-13 6.082-15.607 24.76-52.403 27.073-53.333.456-.184.829-.766.829-1.295C80 227.936 89.71 213 90.968 212c.345-.275 1.71-2.075 3.03-4 1.32-1.925 4.365-5.975 6.764-9l5.948-7.5c10.951-13.81 35.623-38.068 50.315-49.474 2.461-1.91 4.7-3.733 4.975-4.048.275-.316 2.075-1.656 4-2.978 1.925-1.322 3.725-2.69 4-3.04.77-.982 24.857-16.96 25.566-16.96.344 0 1.82-.833 3.28-1.851C206.779 107.616 240.309 91 243.54 91c.738 0 1.575-.377 1.86-.837.472-.766 32.678-11.503 42.1-14.036C338.3 62.467 405.082 61.24 455 73.05c7.306 1.728 7.554 1.724 9.564-.138C465.7 71.86 467.124 71 467.731 71c.606 0 1.252-.369 1.436-.82.32-.787 2.923-2.65 21.75-15.57 4.72-3.238 8.808-6.164 9.083-6.5.275-.338 1.73-1.247 3.233-2.022 1.503-.774 3.528-2.142 4.5-3.04C510.622 40.382 518.777 35 519.93 35c.589 0 1.07-.374 1.07-.831 0-.457 1.238-1.47 2.75-2.25s3.87-2.432 5.24-3.669c1.37-1.238 2.8-2.25 3.178-2.25.38 0 1.284-.591 2.01-1.314.727-.723 3.797-2.942 6.822-4.931 3.025-1.99 7.75-5.207 10.5-7.15 5.359-3.788 8.548-4.457 10.43-2.189.647.779 1.591 5.167 2.1 9.75.507 4.584 1.395 11.259 1.973 14.834 1.026 6.348 2.15 14.849 3.967 30 .494 4.125 1.394 10.425 1.999 14 .605 3.575 1.517 10.1 2.028 14.5 3.021 26.033 4.364 32.574 7.134 34.748a807.751 807.751 0 013.87 3.056c.825.658 2.674 1.953 4.11 2.877 1.434.925 3.234 2.275 3.999 3 .764.725 3.039 2.55 5.053 4.054 2.015 1.504 4.266 3.304 5.002 4 .736.696 4.698 4.19 8.806 7.765 28.7 24.98 55.176 57.967 74.246 92.5 3.016 5.462 11.534 22.775 14.144 28.75a7444.2 7444.2 0 013.054 7c7.753 17.804 17.858 53.9 21.485 76.75 6.634 41.796 5.758 87.969-2.457 129.5-3.405 17.215-11.928 46.267-16.5 56.24-1.069 2.33-1.943 4.624-1.943 5.095 0 .472-.626 2.164-1.39 3.761-.766 1.597-2.165 4.704-3.11 6.904-3.472 8.078-12.087 25.172-15.742 31.232-2.067 3.427-3.758 6.69-3.758 7.25 0 .56-.45 1.018-1 1.018s-1 .465-1 1.033c0 .988-13.641 21.928-14.961 22.967-.35.275-1.717 2.075-3.039 4-1.322 1.925-2.653 3.725-2.958 4-.304.275-1.782 2.149-3.283 4.163-1.5 2.015-3.298 4.276-3.994 5.025-.696.748-3.74 4.268-6.765 7.823-9.537 11.206-29.46 30.529-41.5 40.25-8.565 6.916-13.703 10.842-18 13.755-2.75 1.864-5.595 3.973-6.321 4.686-.727.714-1.708 1.298-2.179 1.298-.471 0-1.452.563-2.179 1.25-2.023 1.914-12.753 8.438-25.821 15.7-20.35 11.307-48.609 22.866-71 29.041-2.475.683-5.625 1.59-7 2.018-1.375.427-5.2 1.323-8.5 1.991-3.3.668-7.125 1.58-8.5 2.027-1.375.447-4.3 1.054-6.5 1.349-2.2.295-6.925 1.013-10.5 1.597-33.07 5.399-80.345 5.438-113.5.094-13.47-2.171-28.041-5.26-38-8.057-2.2-.618-5.575-1.534-7.5-2.037-1.925-.502-8.675-2.772-15-5.043-16.32-5.863-15.39-5.807-16.973-1.01-.741 2.244-1.676 4.08-2.078 4.08-.403 0-1.446 1.687-2.319 3.75-.873 2.062-3.605 7.35-6.073 11.75-2.467 4.4-5.66 10.362-7.094 13.25-2.35 4.73-2.923 5.242-5.786 5.171-1.747-.043-3.74-.306-4.427-.583zM399 727.97c22.029-2.185 29.23-3.29 46.5-7.138 9.654-2.15 25.525-6.524 26.229-7.227.235-.236-6.47-.432-14.9-.437-15.547-.01-28.054-1.22-39.829-3.855-3.575-.8-8.347-1.847-10.605-2.326-4.028-.856-16.513-4.89-27.395-8.85-12.95-4.713-28.658-12.427-44.814-22.009-7.945-4.712-28.193-18.6-32.186-22.076-1.925-1.676-3.95-3.048-4.5-3.048-1.267 0-6.5 8.207-6.5 10.196 0 .82-.9 2.305-2 3.3-1.1.995-2 2.31-2 2.92 0 .612-1.8 4.192-4 7.957-2.2 3.765-4 7.385-4 8.045 0 .66-.804 2.073-1.787 3.14-.983 1.066-2.42 3.513-3.193 5.438-.774 1.925-1.699 3.725-2.056 4-.358.275-1.825 2.858-3.26 5.74-3.076 6.173-3.698 5.537 9.796 10.014 41.76 13.854 85.276 19.71 120.5 16.216zm-155.106-33.22c.469-1.238 1.778-4.95 2.91-8.25 3.264-9.518 4.312-12.516 7.168-20.5 1.476-4.125 3.373-9.525 4.215-12l1.532-4.5h-23.11c-23.587 0-28.005-.478-43.109-4.666-15.05-4.172-30.48-11.138-42.423-19.149-6.594-4.423-7.19-4.656-5.336-2.082 3.879 5.384 28.9 29.178 38.259 36.382 2.475 1.905 4.725 3.724 5 4.042.275.318 3.425 2.58 7 5.026 3.575 2.446 7.095 5.01 7.821 5.697.727.687 1.708 1.25 2.179 1.25.471 0 1.452.574 2.179 1.275C209.978 679.012 226.804 689 227.93 689c.496 0 1.052.337 1.236.75.342.77 11.72 6.981 13.104 7.154.425.053 1.155-.917 1.623-2.154zm196.546-14.854c3.333-.606 10.56-2.242 16.06-3.635 5.5-1.393 11.012-2.748 12.25-3.013 1.238-.265 2.25-.879 2.25-1.365 0-.485.63-.883 1.4-.883 1.19 0 7.245-2.953 19.745-9.629 1.454-.777 3.197-2.078 3.872-2.892.675-.813 1.673-1.479 2.217-1.479 3.908 0 27.747-24.334 36.249-37 6.374-9.497 17.517-31.317 17.517-34.3 0-.87.388-1.822.863-2.115.474-.294 1.423-2.683 2.108-5.31.685-2.626 2.283-8.375 3.55-12.775 5.575-19.356 7.839-38.607 7.702-65.5-.104-20.632-1.904-39.32-5.2-54-5.048-22.477-13.355-51.677-16.926-59.5-.502-1.1-2.121-5.15-3.598-9-4.018-10.48-12.183-27.932-16.842-36-1.27-2.2-3.83-6.925-5.69-10.5-1.86-3.575-5.088-9.063-7.174-12.195-2.086-3.132-3.793-5.964-3.793-6.292 0-.328-.9-1.563-2-2.743-1.1-1.181-2-2.737-2-3.459 0-.72-.338-1.316-.75-1.322-.412-.006-2.775-3.15-5.25-6.989-4.374-6.784-6-8.337-6-5.732 0 .697-1.074 2.848-2.386 4.78-1.313 1.93-4.717 7.998-7.566 13.482-2.85 5.483-7.186 13.57-9.638 17.97-2.452 4.4-5.147 9.35-5.989 11-.841 1.65-3.313 6.15-5.492 10-2.178 3.85-5.09 9.25-6.472 12-1.38 2.75-4.099 7.7-6.04 11-1.942 3.3-3.782 6.787-4.09 7.75-.308.963-.958 1.75-1.444 1.75-.485 0-.883.8-.883 1.777 0 .978-.787 2.89-1.749 4.25-.961 1.36-2.692 4.273-3.845 6.473s-3.8 7.15-5.88 11a4823.03 4823.03 0 00-6.197 11.5 1156.707 1156.707 0 01-5.447 10 552.685 552.685 0 00-6.125 11.5c-1.7 3.3-3.353 6.225-3.674 6.5-.525.45-7.653 13.883-13.928 26.25-1.325 2.612-2.69 4.75-3.032 4.75-.343-.001-.46 6.861-.263 15.25.418 17.714-.618 27.26-4.914 45.25-5.69 23.83-21.337 51.155-39.5 68.983-5.459 5.357-12.289 11.33-15.446 13.507-1.925 1.328-3.725 2.726-4 3.107-.603.836-15.28 9.794-19.5 11.901-6.407 3.2-6.011 5.559 1.75 10.433C323.313 653.263 337.427 661 339.476 661c.747 0 1.507.338 1.69.75.396.89 13.625 6.577 19.334 8.312 2.2.668 4.9 1.551 6 1.963 1.1.41 4.025 1.3 6.5 1.977 2.475.676 5.625 1.586 7 2.022 2.73.865 11.36 2.542 20 3.886 8.126 1.265 33.467 1.256 40.44-.014zM284.5 636.52c11.983-4.022 13.864-5.303 17.407-11.85 5.825-10.762 9.993-18.482 13.453-24.919 1.848-3.438 4.773-8.838 6.5-12a7118.55 7118.55 0 005.993-11 747.605 747.605 0 014.83-8.75c1.089-1.925 3.967-7.325 6.396-12 2.43-4.675 4.644-8.725 4.92-9 .278-.275 1.178-1.85 2-3.5.824-1.65 3.115-5.925 5.092-9.5 1.977-3.575 4.95-8.975 6.605-12a944.2 944.2 0 014.988-9c1.088-1.925 3.966-7.325 6.395-12 2.43-4.675 4.648-8.725 4.93-9 .281-.275 2.621-4.574 5.2-9.554l4.687-9.053-1.486-7.179c-3.7-17.876-11.768-36.733-22.675-52.996l-6.226-9.283-1.374 3.283c-.756 1.805-1.77 4.063-2.255 5.018-.484.955-.88 2.34-.88 3.078s-1.187 4.231-2.637 7.764c-1.45 3.532-2.99 7.772-3.421 9.422-.431 1.65-3.095 9.525-5.92 17.5-2.824 7.975-5.98 16.975-7.013 20-1.034 3.025-3.746 10.675-6.03 17-2.282 6.325-4.374 12.4-4.648 13.5-.274 1.1-.883 2.9-1.354 4-.47 1.1-1.83 4.925-3.02 8.5s-2.525 7.4-2.967 8.5c-2.183 5.432-4.51 12.05-8.59 24.431-2.46 7.463-4.876 14.469-5.37 15.569-.495 1.1-1.858 4.925-3.03 8.5-1.172 3.575-2.53 7.4-3.018 8.5-.488 1.1-2.695 7.4-4.905 14-5.937 17.727-6.307 18.819-7.134 21-4.77 12.595-8.943 24.881-8.943 26.328 0 .963 2.86.261 13.5-3.31zM616.564 616.5C625.998 605.285 646 577.439 646 575.52c0-.306 1.697-3.36 3.77-6.788 3.623-5.989 11.424-21.43 14.515-28.732a569.822 569.822 0 013.599-8.24c1.164-2.606 2.116-5.2 2.116-5.763 0-.563.434-1.806.965-2.76 1.598-2.875 7.914-22.955 9.983-31.737a590.68 590.68 0 012.071-8.5c1.836-7.197 3.872-19.295 6.012-35.725 1.394-10.706 1.381-51.94-.02-62.53-2.145-16.209-4.169-28.22-6.022-35.745-.475-1.925-1.402-5.75-2.06-8.5-2.471-10.316-7.718-26.573-12.022-37.25-.499-1.237-1.311-3.262-1.805-4.5-3.22-8.065-12.255-26.724-16.828-34.75-6.351-11.146-17.614-28.705-19.242-30-.345-.275-1.71-2.075-3.032-4-1.322-1.925-2.676-3.725-3.01-4-.333-.275-1.279-1.486-2.1-2.69-6.767-9.918-25.058-29.048-41.926-43.849-5.48-4.809-19.171-15.461-19.87-15.461-.35 0-2.367 3.263-4.483 7.25a1137.7 1137.7 0 01-6.31 11.732c-1.356 2.464-4.164 7.64-6.242 11.5-2.078 3.86-4.976 9.043-6.441 11.518-1.465 2.475-3.44 6.075-4.39 8-.95 1.925-2.065 3.65-2.478 3.833-.412.184-.75 1.014-.75 1.846 0 .832-.836 2.707-1.858 4.167-4.636 6.622-4.66 6.44 1.855 13.99 3.302 3.827 6.003 7.248 6.003 7.603 0 .354.945 1.638 2.1 2.853 1.154 1.214 3.935 4.908 6.18 8.208 2.245 3.3 4.45 6.15 4.9 6.333.451.184.82.901.82 1.595s.9 2.077 2 3.072c1.1.995 2 2.345 2 3 0 .655.9 2.005 2 3 1.1.995 2 2.33 2 2.966 0 .636.788 2.052 1.75 3.146 1.843 2.095 3.707 5.084 5.997 9.618.759 1.502 1.758 2.964 2.22 3.25.463.286 2.523 3.768 4.577 7.739 2.055 3.97 4.643 8.808 5.75 10.75C586.3 325.004 606 369.847 606 374.032c0 .547.429 1.777.953 2.732 4.385 7.985 15.51 52.502 18.052 72.236.602 4.675 1.542 11.425 2.088 15 1.87 12.246 2.774 39.817 1.863 56.8-1.155 21.505-2.435 31.122-6.946 52.2-2.746 12.832-10.083 34.509-14.101 41.663-1.05 1.869-1.909 3.867-1.909 4.44 0 .573-2.485 5.396-5.521 10.72l-5.522 9.677 8.28-8.5c4.554-4.675 10.552-11.2 13.327-14.5zM83.865 466c.584-3.025 1.553-7.3 2.154-9.5.602-2.2 1.465-5.35 1.919-7 2.748-9.994 15.338-37.5 17.164-37.5.42 0 1.048-.897 1.396-1.994.348-1.097 1.18-2.56 1.85-3.25.67-.69 2.32-2.831 3.667-4.756 5.005-7.153 16.418-19.216 24.37-25.76l3.887-3.197-.643-7.271c-3.762-42.585-2.674-75.49 3.43-103.772l2.96-13.72c.5-2.321 2.766-9.521 5.035-16 2.269-6.479 4.362-12.793 4.652-14.03.29-1.238.925-2.25 1.41-2.25.486 0 .884-.494.884-1.098 0-1.557 8.24-18.333 9.202-18.735.439-.184.798-.778.798-1.32 0-.543 1.35-2.949 3-5.347 1.65-2.398 3-4.804 3-5.347 0-.542.354-1.136.786-1.32.432-.183 1.85-1.848 3.15-3.699 2.288-3.256 2.296-3.328.233-2.224-2.302 1.231-30.61 29.023-36.253 35.59-1.89 2.2-4.996 6.025-6.9 8.5-1.906 2.475-3.723 4.725-4.038 5-.316.275-1.656 2.075-2.978 4-1.322 1.925-2.674 3.725-3.003 4-.33.275-2.943 4.1-5.805 8.5-2.863 4.4-5.562 8.45-5.999 9-.436.55-1.895 3.025-3.243 5.5-1.347 2.475-2.72 4.725-3.048 5-1.269 1.06-14.728 28.96-18.268 37.868-11.57 29.116-17.155 51.428-21.558 86.132-1.38 10.88-1.408 50.063-.043 60.5 2.435 18.606 4.988 32.82 7.994 44.5 1.561 6.067 5.159 18.437 5.816 20 .347.825.93-7.725 1.296-19s1.143-22.975 1.726-26zm268.712-82.67c.793-1.744 1.72-4.566 2.061-6.271.341-1.705 1.012-3.343 1.491-3.639.48-.296.871-1.636.871-2.979 0-1.343.45-2.441 1-2.441s1-.6 1-1.335c0-1.445 3.524-12.91 4.97-16.165.488-1.1 1.648-4.475 2.578-7.5.93-3.025 2.273-6.85 2.983-8.5.71-1.65 2.287-6.15 3.504-10 1.217-3.85 2.607-7.428 3.089-7.95.482-.522.876-1.958.876-3.191 0-1.233.392-2.483.87-2.78.48-.295 1.15-1.933 1.492-3.638.34-1.705 1.246-4.527 2.012-6.27.765-1.744 2.4-6.546 3.633-10.671 1.232-4.125 2.554-7.95 2.937-8.5.382-.55 1.28-3.025 1.994-5.5.715-2.475 2.532-7.875 4.04-12a983.13 983.13 0 004.812-13.5c3.815-11.051 4.486-12.964 7.19-20.5 3.898-10.862 5.02-14.458 5.02-16.087 0-1.446-8.941-7.913-10.94-7.913-.583 0-1.06-.395-1.06-.879 0-.483-1.462-1.47-3.25-2.193-1.788-.723-3.475-1.566-3.75-1.874-1.119-1.254-26.05-13.036-33.5-15.832-11.907-4.47-24.07-7.922-32.5-9.226-4.125-.638-9.142-1.578-11.148-2.089-2.006-.51-10.781-.952-19.5-.98-20.082-.065-35.151 2.731-53.852 9.992-6.393 2.482-18.822 9.157-21.408 11.498-.962.87-2.078 1.583-2.48 1.583-.894 0-8.982 6.208-9.445 7.25-.184.413-.752.75-1.264.75-1.342 0-12.968 11.942-19.266 19.79C182.523 230.16 168 253.32 168 255.101c0 .461-1.161 3.378-2.58 6.48-10.602 23.178-17.42 59.24-17.42 92.139v13.509l2.415-1.582c10.304-6.752 23.305-12.942 35.585-16.943 7.345-2.393 10.36-3.18 22.5-5.874 8.263-1.833 46.826-1.82 55 .019 19.69 4.43 24.66 5.82 31.5 8.82 19.173 8.404 34.374 18.109 46.785 29.868 6.27 5.941 8.804 7.795 9.033 6.61.175-.906.966-3.075 1.759-4.818zM433.8 149.8c.66-.66 1.2-1.998 1.2-2.973 0-.976.85-3.698 1.89-6.05 1.038-2.352 2.79-6.977 3.89-10.277 2.963-8.879 4.387-12.796 5.354-14.736 1.628-3.265.94-4.488-2.884-5.122a424.962 424.962 0 01-9.25-1.691c-9.91-1.927-17.24-2.845-36-4.508-15.602-1.383-21.084-1.46-35-.492-22.751 1.583-37.511 3.769-56.896 8.427-5.332 1.281-5.204 1.305 10.536 1.924 8.764.345 18.167 1.057 20.897 1.583 2.73.525 7.888 1.49 11.463 2.146 7.015 1.285 8.602 1.683 20 5.018 8.703 2.547 16.732 5.395 22.74 8.066 2.33 1.037 4.516 1.885 4.854 1.885 1.148 0 21.543 10.165 28.246 14.077 7.546 4.405 7.34 4.342 8.96 2.723zm646.951 563.443c-3.386-2.1-5.076-6.882-4.215-11.93.952-5.59 25.758-78.781 29.084-85.813 1.804-3.817 5.666-8.951 10.612-14.11 9.307-9.708 19.43-15.48 30.371-17.319 4.946-.83 29.812-1.07 87.897-.847 90.149.346 85.738.009 94.142 7.201 6.357 5.442 8.856 11.533 8.852 21.575 0 10.267-1.551 15.857-5.691 20.572-4.635 5.278-9.594 7.434-17.013 7.395-4.87-.026-6.854-.503-8.79-2.114-2.27-1.888-2.505-2.809-2.556-9.995-.048-6.8-.37-8.228-2.278-10.137l-2.22-2.221-74.723-.289c-53.832-.208-75.887.032-78.887.856-5.111 1.405-8.767 5.07-10.797 10.823-.846 2.399-1.539 4.69-1.539 5.093 0 .402 19.013 1.002 42.25 1.332 27.775.395 46.19 1.104 53.75 2.068 42.951 5.477 66.053 19.642 78.486 48.123 5.312 12.17 4.5 18.674-3.202 25.623-4.99 4.503-10.06 6.243-16.41 5.633-6.169-.593-7.739-2.041-13.915-12.833-6.33-11.06-15.5-19.92-26.487-25.588-17.377-8.965-26.978-10.248-82.472-11.017l-43.5-.604-6.365 19.264c-6.983 21.136-9.624 25.502-17.635 29.15-5.07 2.31-13.115 2.361-16.749.109zm293.523.724c-11.544-2.335-21.044-12.466-24.35-25.967-1.966-8.032-1.728-24.978.479-34 3.892-15.916 15.598-35.224 28.9-47.666 7.08-6.624 18.168-14.328 24.917-17.313 12.492-5.526 10.769-5.41 86.78-5.813 73.812-.39 80.269-.103 88.222 3.92 12.594 6.373 18.936 19.303 19.056 38.85.08 13.066-2.021 22.34-7.835 34.592-10.838 22.838-31.136 42.385-53.196 51.226l-6.747 2.704-76 .161c-41.8.089-77.902-.224-80.226-.694zm152.84-31.982c13.517-2.547 25.96-12.852 32.586-26.985 7.367-15.715 7.85-24.661 1.718-31.825-6.753-7.89-4.618-7.675-76.418-7.675-59.619 0-63.836.115-69 1.887-8.045 2.76-13.657 6.307-19.718 12.466-9.925 10.085-17.32 30.403-14.495 39.83 1.59 5.305 7.018 10.307 12.905 11.89 6.09 1.636 123.975 2.004 132.422.412zM1641 714.06c-16.857-3.417-26.386-21.316-24.637-46.275 1.913-27.307 19.18-55.362 44.387-72.12 8.29-5.51 13.6-7.981 22.36-10.4 5.894-1.629 13.575-1.766 98.986-1.766 102.129 0 94.76-.478 97.607 6.334 2.862 6.847-.306 15.343-8.045 21.573l-3.842 3.093-89.658.525c-88.291.517-89.743.558-95.264 2.647-7.728 2.924-13.371 6.665-19.158 12.7-9.55 9.96-16.686 30.176-13.916 39.422 1.682 5.613 7.624 10.707 14.113 12.098 3.548.761 31.637 1.108 89.715 1.108 75.007 0 84.926.178 87.881 1.58 9.893 4.695 5.415 22.906-7.02 28.555-3.79 1.722-9.076 1.816-97.009 1.728-51.15-.051-94.575-.412-96.5-.802zm233.751-.818c-3.487-2.163-5.014-6.742-4.12-12.359.834-5.232 33.37-101.005 36.192-106.536 3.708-7.266 9.77-10.688 18.967-10.709 5.518-.012 6.622.319 9 2.699 4.34 4.344 3.687 10.73-3.121 30.491l-5.626 16.329 40.228-.466c41.283-.478 42.494-.581 59.471-5.086 19.005-5.043 47.097-17.441 75.696-33.408 18.509-10.333 19.083-10.573 25.29-10.573 5.575 0 6.683.332 9.062 2.713 2.38 2.382 2.708 3.482 2.693 9.035-.022 8.225-2.341 11.659-12.386 18.34-15.509 10.317-46.339 26.782-62.457 33.356-4.905 2-5.577 2.556-4.125 3.41 12.813 7.54 35.832 26.948 42.13 35.521 5.202 7.082 4.49 15.056-1.956 21.872-5.788 6.12-15.248 8.767-22.068 6.174-1.38-.525-7.27-5.246-13.088-10.493-16.863-15.206-36.422-27.491-51.533-32.37-16.219-5.238-18.327-5.45-59.13-5.94l-38.63-.465-5.759 17.361c-6.525 19.674-8.132 23.255-12.14 27.058-5.933 5.632-16.872 7.59-22.59 4.046zm274.742-.594c-5.826-2.713-10.719-7.872-12.626-13.313-.74-2.11-1.334-7.661-1.322-12.336.02-7.656.59-10.188 5.73-25.5 3.14-9.35 6.567-18.401 7.618-20.113 1.066-1.736 4.057-4.17 6.76-5.5l4.847-2.387h214.673l2.413 2.806c4.607 5.355 2.675 17.401-3.752 23.396-5.899 5.502-1.847 5.298-105.126 5.298h-95.356l-2.386 7.61c-2.334 7.44-2.345 7.64-.485 9 1.592 1.164 17.266 1.39 96.242 1.39 102.734 0 100.132-.14 102.283 5.517 3.296 8.669-2.175 20.383-11.497 24.618-3.791 1.722-9.417 1.822-103.509 1.833l-99.5.012-5.007-2.331zm349.527 1.067c-3.84-1.944-5.198-5.432-4.56-11.716.325-3.198 6.356-22.452 14.41-46l13.853-40.5-45.257-.5c-50.786-.561-48.652-.22-49.962-7.976-1.342-7.942 3.136-16.878 10.535-21.024l4.461-2.5h107.096c118.145 0 109.25-.503 112.108 6.334 2.947 7.05-.424 15.681-8.543 21.874l-4.316 3.292h-92.527l-14.314 42.25c-7.872 23.238-15.102 43.825-16.067 45.75-2.278 4.547-6.504 8.504-11.155 10.447-4.467 1.866-12.34 2-15.762.269zm289.731-.473c-3.487-2.163-5.014-6.742-4.12-12.359.834-5.232 33.37-101.005 36.192-106.536 2.244-4.396 4.218-6.327 9.177-8.977 3.334-1.782 7.814-1.884 94.5-2.153 54.481-.17 93.484.101 97.19.674 14.68 2.27 22.81 10.753 24.009 25.057 1.94 23.13-16.25 46.404-42.699 54.63-3.706 1.152-19.418 1.401-89.02 1.41l-84.52.011-6.344 19.124c-6.961 20.98-9.629 25.373-17.616 29.01-5.07 2.31-13.115 2.361-16.749.109zm215.049-81.648c3.044-1.584 6.398-5.024 8.078-8.285.946-1.836.737-2.646-1.288-5l-2.416-2.81-80.874-.273-80.873-.272-2.714 8.332c-1.492 4.583-2.713 8.643-2.713 9.023 0 .38 36.022.69 80.05.69 66.8 0 80.496-.233 82.75-1.405zm42.951 81.648c-3.813-2.364-5.11-6.854-3.886-13.44 1.309-7.036 10.355-32.599 13.731-38.802 3.538-6.5 16.534-19.03 23.273-22.44 10.817-5.471 11.77-5.525 98.93-5.544 86.445-.018 82.97.186 87.826-5.172 4.262-4.703 4.621-6.447 1.965-9.535l-2.416-2.81-92.432-.27-92.431-.27-2.195-2.337c-6.275-6.68-1.994-21.066 7.923-26.623l4.461-2.5 91-.282c54.481-.17 93.484.101 97.19.674 14.68 2.27 22.81 10.753 24.009 25.057 1.399 16.685-8.424 35-24.702 46.053-6.702 4.552-11.388 6.672-19.71 8.921l-6.214 1.68 8.96 8.262c14.208 13.103 17.198 19.086 13.906 27.82-2.624 6.96-11.914 13.253-19.624 13.293-6.384.034-8.443-1.157-19.542-11.296-12.55-11.465-32.553-25.184-43.098-29.557-18.044-7.483-30.18-9.052-70.175-9.07-37.129-.015-35.75-.776-44.126 24.336-5.118 15.343-8.484 20.378-15.874 23.743-5.07 2.31-13.115 2.361-16.749.109zm293.523.724c-11.544-2.335-21.044-12.466-24.35-25.967-1.966-8.032-1.728-24.978.479-34 3.892-15.916 15.598-35.224 28.9-47.666 7.08-6.624 18.168-14.328 24.917-17.313 12.492-5.526 10.769-5.41 86.78-5.813 73.812-.39 80.269-.103 88.222 3.92 12.594 6.373 18.936 19.303 19.056 38.85.08 13.066-2.021 22.34-7.835 34.592-10.838 22.838-31.136 42.385-53.196 51.226l-6.747 2.704-76 .161c-41.8.089-77.902-.224-80.226-.694zm152.84-31.982c13.517-2.547 25.96-12.852 32.585-26.985 7.368-15.715 7.85-24.661 1.719-31.825-6.753-7.89-4.618-7.675-76.418-7.675-59.619 0-63.836.115-69 1.887-8.045 2.76-13.657 6.307-19.718 12.466-9.925 10.085-17.32 30.403-14.495 39.83 1.59 5.305 7.018 10.307 12.905 11.89 6.09 1.636 123.975 2.004 132.422.412zm109.967 31.447c-6.788-1.85-10.878-4.358-15.554-9.534-5.529-6.12-7.677-11.97-8.272-22.523-.866-15.362 2.525-24.633 11.005-30.092 3.602-2.319 5.326-2.733 11.46-2.756 6.207-.023 7.54.293 9.5 2.257 2.022 2.025 2.281 3.27 2.293 11 .01 5.411.536 9.744 1.393 11.428 1.928 3.787 8.206 7.671 14.255 8.819 7.454 1.413 123.303 1.274 130.04-.156 5.544-1.178 14.88-5.565 18.299-8.6 3.922-3.481 11.286-12.845 13.405-17.044 1.185-2.347 6.348-16.526 11.473-31.507 5.126-14.98 10.02-28.585 10.876-30.231 3.576-6.879 10.652-10.833 19.418-10.854 6.946-.016 8.895 1.085 11.05 6.238 2.006 4.802 1.267 7.953-8.941 38.123-12.133 35.86-16.158 43.705-30.042 58.572-11.318 12.119-23.294 20.355-37.305 25.653l-5.934 2.244-76.5.22c-64.867.188-77.324-.003-81.919-1.257zm252.412-.783c-5.826-2.713-10.719-7.872-12.626-13.313-.74-2.11-1.334-7.661-1.322-12.336.02-7.656.59-10.188 5.73-25.5 3.14-9.35 6.567-18.401 7.618-20.113 1.066-1.736 4.057-4.17 6.76-5.5l4.847-2.387h214.673l2.413 2.806c4.607 5.355 2.675 17.401-3.752 23.396-5.899 5.502-1.847 5.298-105.126 5.298h-95.356l-2.386 7.61c-2.334 7.44-2.345 7.64-.485 9 1.592 1.164 17.266 1.39 96.242 1.39 102.734 0 100.132-.14 102.283 5.517 3.296 8.669-2.175 20.383-11.497 24.618-3.791 1.722-9.417 1.822-103.509 1.833l-99.5.012-5.007-2.331zM4138 714.06c-16.857-3.417-26.386-21.316-24.637-46.275 1.913-27.307 19.18-55.362 44.387-72.12 8.29-5.51 13.6-7.981 22.36-10.4 5.894-1.629 13.575-1.766 98.986-1.766 102.129 0 94.76-.478 97.608 6.334 2.861 6.847-.307 15.343-8.046 21.573l-3.842 3.093-89.658.525c-88.291.517-89.744.558-95.264 2.647-7.728 2.924-13.371 6.665-19.158 12.7-9.55 9.96-16.686 30.176-13.916 39.422 1.682 5.613 7.624 10.707 14.113 12.098 3.548.761 31.637 1.108 89.715 1.108 75.007 0 84.926.178 87.881 1.58 9.893 4.695 5.415 22.906-7.02 28.555-3.79 1.722-9.076 1.816-97.009 1.728-51.15-.051-94.575-.412-96.5-.802zm335.02-.345c-3.84-1.944-5.199-5.432-4.56-11.716.324-3.198 6.356-22.452 14.41-46l13.853-40.5-45.257-.5c-50.787-.561-48.652-.22-49.962-7.976-1.342-7.942 3.136-16.878 10.535-21.024l4.461-2.5h107.096c118.145 0 109.25-.503 112.107 6.334 2.947 7.05-.423 15.681-8.542 21.874l-4.316 3.292h-92.527l-14.314 42.25c-7.872 23.238-15.102 43.825-16.067 45.75-2.278 4.547-6.504 8.504-11.155 10.447-4.467 1.866-12.34 2-15.762.269zM2165.135 612.643c-6.294-6.699-2.029-21.077 7.904-26.643l4.461-2.5H2397.955l2.553 2.554c5.11 5.11 4.102 15.051-2.237 22.067-6.711 7.43 2.892 6.879-120.047 6.879h-110.875zm1706 0c-6.294-6.699-2.029-21.077 7.904-26.643l4.461-2.5H4103.955l2.553 2.554c5.11 5.11 4.102 15.051-2.237 22.067-6.711 7.43 2.892 6.879-120.047 6.879h-110.875zM918.02 464.716c-3.689-1.867-5.185-5.465-4.663-11.216.606-6.68 17.718-56.91 22.824-67 2.227-4.4 6.045-10.813 8.484-14.25l4.436-6.25H851.35l-2.214-2.357c-6.294-6.699-2.029-21.077 7.904-26.643l4.461-2.5h107.096c118.145 0 109.25-.503 112.108 6.334 2.861 6.846-.307 15.342-8.044 21.573l-3.84 3.093-34.66.536c-32.12.497-35.078.692-40.369 2.66-7.274 2.706-16.29 9.635-21.478 16.506-5.353 7.09-8.543 14.64-18.17 43.003-8.9 26.223-9.712 28.105-13.804 31.992-5.626 5.344-16.383 7.522-22.32 4.519zm193.254.251c-11.544-2.335-21.044-12.466-24.35-25.967-1.966-8.032-1.728-24.978.479-34 3.892-15.916 15.598-35.224 28.9-47.666 7.08-6.624 18.168-14.328 24.917-17.313 12.492-5.526 10.769-5.41 86.78-5.813 73.812-.39 80.269-.103 88.222 3.92 12.594 6.373 18.936 19.303 19.056 38.85.08 13.066-2.021 22.34-7.835 34.592-10.838 22.838-31.136 42.385-53.196 51.226l-6.747 2.704-76 .161c-41.8.089-77.902-.224-80.226-.694zm152.84-31.982c13.517-2.547 25.96-12.852 32.586-26.985 7.367-15.715 7.85-24.661 1.718-31.825-6.753-7.89-4.618-7.675-76.418-7.675-59.619 0-63.836.115-69 1.887-8.045 2.76-13.657 6.307-19.718 12.466-9.925 10.085-17.32 30.403-14.495 39.83 1.59 5.305 7.018 10.307 12.905 11.89 6.09 1.636 123.975 2.004 132.422.412zm79.637 31.258c-3.487-2.163-5.014-6.742-4.12-12.359.834-5.232 33.37-101.005 36.192-106.536 3.708-7.266 9.77-10.688 18.967-10.709 5.518-.012 6.622.319 9 2.699 4.34 4.344 3.687 10.73-3.121 30.49l-5.626 16.33 40.228-.466c41.283-.478 42.494-.581 59.471-5.086 19.005-5.043 47.097-17.441 75.696-33.408 18.509-10.333 19.083-10.573 25.29-10.573 5.575 0 6.683.332 9.062 2.713 2.38 2.382 2.708 3.482 2.693 9.035-.022 8.225-2.341 11.659-12.386 18.34-15.509 10.317-46.339 26.782-62.457 33.356-4.905 2-5.577 2.556-4.125 3.41 12.813 7.54 35.832 26.948 42.13 35.521 5.202 7.082 4.49 15.056-1.956 21.872-5.788 6.12-15.248 8.767-22.068 6.174-1.38-.525-7.27-5.246-13.088-10.493-16.863-15.206-36.422-27.491-51.533-32.37-16.219-5.238-18.326-5.45-59.13-5.94l-38.63-.465-5.759 17.361c-6.525 19.674-8.132 23.255-12.14 27.058-5.933 5.632-16.872 7.59-22.59 4.046zm258 0c-4.713-2.923-5.717-10.173-2.558-18.483.84-2.209 76.04-72.748 106.768-100.15 13.097-11.679 24.884-16.61 39.705-16.61 11.184 0 18.187 2.571 23.04 8.46 2.057 2.495 9.829 20.222 23.406 53.388 18.273 44.635 20.32 50.21 20.254 55.168-.086 6.465-1.94 10.525-6.73 14.73-4.603 4.042-9.658 5.583-16.465 5.018-4.575-.38-5.962-.943-7.55-3.069-1.068-1.432-10.376-23.212-20.683-48.4-19.643-48.005-22.356-53.25-26.814-51.834-3.43 1.088-10.687 7.472-63.54 55.89-29.338 26.876-49.5 44.615-52 45.75-5.149 2.339-13.18 2.406-16.833.142zm239 0c-3.487-2.163-5.014-6.742-4.12-12.359.834-5.232 33.37-101.005 36.192-106.536 3.708-7.266 9.77-10.688 18.967-10.709 5.516-.012 6.623.32 9 2.696 5.37 5.37 4.74 8.176-14.737 65.63-19.064 56.233-19.428 57.014-28.553 61.17-5.07 2.308-13.115 2.36-16.749.108zm198.269.486c-10.232-5.232-3.445-26.018 9.686-29.664 2.528-.702 34.323-1.061 95.294-1.076l91.5-.022 4-2.259c4.898-2.766 8.544-8.813 6.902-11.447-2.655-4.258-2.058-4.23-91.402-4.256l-85.5-.025-5-2.333c-6.283-2.932-12.044-9.24-13.552-14.84-.66-2.45-.994-8.452-.774-13.92.347-8.656.753-10.354 4.076-17.077 2.895-5.86 5.58-9.28 12.47-15.892 9.378-8.998 17.223-13.788 26.28-16.047 4.468-1.114 23.47-1.371 101.227-1.371h95.727l2.554 2.554c3.136 3.135 4.056 8.14 2.534 13.789-1.151 4.277-6.538 11.21-10.456 13.46-1.562.896-25.697 1.323-96.086 1.697-104.135.554-97.012.067-102.88 7.04-3.208 3.812-3.357 7.33-.398 9.403 1.968 1.379 11.686 1.557 84.864 1.557 50.25 0 84.683.387 87.851.988 9.293 1.762 15.852 6.217 19.899 13.512 2.712 4.89 2.333 23.237-.642 31.074-5.088 13.401-18.867 27.002-33.358 32.927l-7.336 2.999-97.5.248c-77.164.197-98.017-.016-99.98-1.02zm361-.013c-3.84-1.944-5.199-5.432-4.56-11.716.324-3.198 6.356-22.452 14.41-46l13.853-40.5-45.257-.5c-50.787-.561-48.652-.22-49.962-7.976-1.342-7.942 3.136-16.878 10.535-21.024l4.461-2.5h107.096c118.145 0 109.25-.503 112.108 6.334 2.946 7.05-.424 15.681-8.543 21.874l-4.316 3.292h-92.527l-14.314 42.25c-7.872 23.238-15.102 43.825-16.067 45.75-2.278 4.547-6.504 8.504-11.155 10.447-4.467 1.866-12.34 2-15.762.269zm193.254.251c-11.54-2.334-21.027-12.447-24.359-25.967-2.086-8.464-1.644-25.93.897-35.5 2.493-9.39 17.505-53.29 19.582-57.267 3.643-6.974 11.036-11.233 19.5-11.233 7.812 0 11.07 2.502 11.81 9.07.429 3.798-1.015 9.113-9.225 33.967-10.625 32.164-12.01 39.101-8.977 44.967 1.91 3.693 4.39 6.11 8.998 8.766 2.74 1.58 8.395 1.755 65.293 2.023 40.551.19 64.286-.075 68-.76 8.052-1.483 15.336-5.332 22.31-11.788 7.898-7.313 12.28-16.484 22.813-47.745 4.447-13.2 8.826-25.35 9.73-27 4.281-7.818 10.498-11.443 19.68-11.478 5.123-.02 6.181.332 8.75 2.901 4.861 4.86 4.248 8.862-6.063 39.592-4.942 14.731-10.775 30.479-12.961 34.996-10.723 22.153-31.151 41.607-52.805 50.285l-6.747 2.704-76 .161c-41.8.089-77.902-.224-80.226-.694zm232.477-.705c-3.482-2.184-5.01-6.764-4.13-12.378.903-5.744 16.855-52.207 19.686-57.334 3.85-6.973 12.993-11.345 21.122-10.1 6.53 1 8.817 3.382 9.288 9.673.338 4.519-.485 8.004-5.158 21.843-3.057 9.056-5.559 16.819-5.559 17.25 0 1.182 146.705.974 153.113-.218 13.517-2.513 26.472-13.132 33.127-27.154 5.844-12.311 7.173-22.155 3.866-28.634-2.312-4.53-4.4-6.455-9.606-8.854-3.775-1.74-8.987-1.86-92.618-2.145l-88.618-.301-2.172-2.312c-6.252-6.655-1.951-21.052 7.947-26.598l4.461-2.5 88.5-.282c57.675-.184 90.847.08 95.238.757 15.726 2.426 24.03 9.531 29.33 25.094 2.782 8.169 2.563 26.781-.44 37.431-7.935 28.133-31.445 54.729-57.64 65.205l-6.988 2.795-95 .243c-88.437.226-95.19.123-97.749-1.481zm284.742-.613c-5.826-2.713-10.719-7.872-12.626-13.313-.74-2.11-1.334-7.661-1.322-12.336.02-7.656.59-10.188 5.73-25.5 3.14-9.35 6.567-18.401 7.618-20.113 1.066-1.736 4.057-4.17 6.76-5.5l4.847-2.387h214.673l2.413 2.806c4.607 5.355 2.675 17.401-3.752 23.396-5.899 5.502-1.847 5.298-105.126 5.298h-95.356l-2.386 7.61c-2.334 7.44-2.345 7.64-.485 9 1.592 1.164 17.266 1.39 96.242 1.39 102.734 0 100.132-.14 102.283 5.517 3.296 8.669-2.175 20.383-11.497 24.618-3.791 1.722-9.417 1.822-103.509 1.833l-99.5.012-5.007-2.331zm248.258.594c-3.382-2.097-5.074-6.875-4.225-11.93 1.207-7.18 29.734-89.805 33.126-95.945 6.362-11.514 17.286-19.361 29.721-21.348 7.585-1.211 13.538-.535 18.886 2.146 2.068 1.036 27.268 20.02 56 42.186 62.427 48.16 62.052 47.886 64.925 47.471 3.946-.569 7.745-8.823 17.968-39.037 12.628-37.32 14.509-42.23 17.58-45.88 4.036-4.796 9.818-7.243 17.158-7.263 5.738-.016 6.631.262 8.75 2.725 1.893 2.2 2.36 3.89 2.36 8.539 0 4.85-2.42 12.875-14.836 49.194-8.16 23.87-15.997 45.67-17.415 48.447-1.436 2.812-5.641 7.938-9.49 11.57-5.805 5.474-8.07 6.892-14.13 8.84-9.918 3.19-21.227 2.558-27.444-1.53-2.302-1.514-27.585-20.817-56.185-42.894-28.6-22.078-53.792-41.354-55.982-42.837-9.917-6.716-11.044-4.882-28.138 45.776-11.773 34.893-13.268 37.74-21.88 41.661-5.07 2.31-13.115 2.361-16.749.109zm358.269.473c-3.84-1.944-5.199-5.432-4.56-11.716.324-3.198 6.356-22.452 14.41-46l13.853-40.5-45.257-.5c-50.787-.561-48.652-.22-49.962-7.976-1.342-7.942 3.136-16.878 10.535-21.024l4.461-2.5h107.096c118.145 0 109.25-.503 112.108 6.334 2.946 7.05-.424 15.681-8.543 21.874l-4.316 3.292h-92.527l-14.314 42.25c-7.872 23.238-15.102 43.825-16.067 45.75-2.278 4.547-6.504 8.504-11.155 10.447-4.467 1.866-12.34 2-15.762.269zm-590.885-101.073c-6.294-6.699-2.029-21.077 7.904-26.643l4.461-2.5H3358.955l2.553 2.554c5.11 5.11 4.102 15.051-2.237 22.067-6.711 7.43 2.892 6.879-120.047 6.879h-110.875z"/></svg>